<svg width="30" height="30" viewBox="0 0 30 30" fill="none" xmlns="http://www.w3.org/2000/svg">
<path d="M21.6997 9.64173C21.895 9.02589 22 8.3725 22 7.69565C22 3.99775 18.866 1 15 1C11.134 1 8 3.99775 8 7.69565C8 8.3725 8.10499 9.02589 8.30026 9.64173C4.76281 9.97756 2 12.8323 2 16.3043C2 20.0023 5.13401 23 9 23C11.5463 23 13.7751 21.6995 15 19.7551C16.2249 21.6995 18.4537 23 21 23C24.866 23 28 20.0023 28 16.3043C28 12.8323 25.2372 9.97756 21.6997 9.64173Z" fill="#393939"/>
<path d="M10.7689 22.7844C10.453 21.5232 10.2613 20.201 10.2107 18.8356C9.93778 11.4816 13.8357 5.07601 19.5063 2.57175C18.2887 1.59095 16.7165 1 15 1C11.134 1 8 3.99775 8 7.69565C8 8.3725 8.10499 9.02589 8.30026 9.64173C4.76281 9.97756 2 12.8323 2 16.3043C2 20.0023 5.13401 23 9 23C9.61107 23 10.2039 22.9251 10.7689 22.7844Z" fill="#515151"/>
<path d="M15 21C15 24.012 13.4395 26.6353 11.1338 28H18.8663C16.5606 26.6353 15 24.012 15 21Z" fill="#393939"/>
</svg>
