<svg width="30" height="30" viewBox="0 0 30 30" fill="none" xmlns="http://www.w3.org/2000/svg">
<path d="M27.5946 13.9686C27.8573 14.6719 28.0002 15.4281 28.0002 16.2157C28.0002 19.9626 24.7667 23 20.778 23C18.4154 23 16.3177 21.9343 15.0001 20.2866C13.6824 21.9343 11.5848 23 9.22212 23C5.23346 23 2 19.9626 2 16.2157C2 15.4245 2.1442 14.6649 2.40925 13.9588C4.61539 7.59057 15.0002 1 15.0002 1C15.0002 1 25.3957 7.59731 27.5946 13.9686Z" fill="#393939"/>
<path d="M19.2746 4.10589C13.5779 6.88904 9.72425 13.2389 9.99285 20.4773C10.0239 21.3129 10.1088 22.1327 10.2438 22.9327C9.9101 22.9771 9.56888 23 9.22212 23C5.23346 23 2 19.9626 2 16.2157C2 15.4245 2.1442 14.6649 2.40925 13.9588C4.61539 7.59057 15.0002 1 15.0002 1C15.0002 1 16.915 2.21509 19.2746 4.10589Z" fill="#515151"/>
<path d="M14.9999 21C14.9999 24.012 13.4394 26.6353 11.1337 28H18.8662C16.5605 26.6353 14.9999 24.012 14.9999 21Z" fill="#393939"/>
</svg>
