<svg width="60" height="32" viewBox="0 0 60 32" fill="none" xmlns="http://www.w3.org/2000/svg">
<rect width="15.6266" height="25.0649" rx="2.1659" transform="matrix(0.916996 -0.398896 0.382674 0.923884 0 8.84375)" fill="#F3F8FF"/>
<path d="M6.88488 10.4854L7.22734 11.3122L10.0532 10.0829L10.0356 15.6876L10.9956 15.2699L10.9279 9.59193L10.6242 8.85872L6.88488 10.4854Z" fill="#2E3D52"/>
<path d="M15.2881 19.0065C15.2676 18.7724 15.212 18.5388 15.1183 18.3126C14.6062 17.0764 13.1513 16.5266 11.8686 17.0846C10.5858 17.6426 9.96105 19.0971 10.4731 20.3332C10.5668 20.5595 10.6921 20.7628 10.8422 20.9405C9.71494 21.5633 9.19353 22.9164 9.67427 24.077C10.1863 25.3132 11.6412 25.863 12.924 25.305C13.7688 24.9375 14.3283 24.1811 14.4655 23.3543C15.1411 23.8275 16.0607 23.9405 16.9056 23.573C18.1883 23.015 18.8131 21.5605 18.301 20.3244C17.8203 19.1637 16.5083 18.6081 15.2881 19.0065Z" fill="#393939"/>
<path d="M13.481 24.9776C13.2016 24.6016 12.9549 24.1873 12.749 23.7381C11.6402 21.3192 12.0466 18.6152 13.5814 16.9596C13.0416 16.8075 12.4381 16.8369 11.8686 17.0846C10.5858 17.6426 9.96105 19.0971 10.4731 20.3332C10.5668 20.5595 10.6921 20.7628 10.8422 20.9405C9.71494 21.5633 9.19353 22.9164 9.67427 24.077C10.1863 25.3132 11.6412 25.863 12.924 25.305C13.1267 25.2168 13.313 25.1062 13.481 24.9776Z" fill="#515151"/>
<path d="M14.6378 23.7704C15.0549 24.7773 14.9003 25.8795 14.3243 26.6685L16.8899 25.5524C15.9359 25.429 15.0549 24.7773 14.6378 23.7704Z" fill="#393939"/>
<rect width="15.5899" height="25.1217" rx="2.1659" transform="matrix(0.968877 -0.247543 0.236383 0.97166 10.9209 3.85938)" fill="#F3F8FF"/>
<path d="M17.4698 6.60451L17.6813 7.47408L20.667 6.71125L19.7864 12.234L20.8007 11.9748L21.6083 6.36619L21.4207 5.59507L17.4698 6.60451Z" fill="#2E3D52"/>
<path d="M26.91 17.3314C27.0623 17.5552 27.1771 17.8083 27.2444 18.0852C27.5649 19.4025 26.6911 20.76 25.2928 21.1172C24.4646 21.3289 23.638 21.1421 23.0352 20.6808C22.7142 21.3781 22.0699 21.9407 21.2417 22.1523C19.8434 22.5095 18.45 21.7313 18.1295 20.414C18.0619 20.1358 18.0474 19.8558 18.08 19.5838C18.3087 17.1473 21.3856 13.9 21.3856 13.9C21.3856 13.9 25.5942 15.2884 26.91 17.3314Z" fill="#393939"/>
<path d="M23.1498 14.6091C21.3907 16.0979 20.5828 18.6755 21.2961 21.1963C21.3784 21.4873 21.4783 21.7679 21.5941 22.0371C21.4809 22.0826 21.3632 22.1212 21.2417 22.1523C19.8434 22.5095 18.45 21.7313 18.1295 20.414C18.0619 20.1358 18.0474 19.8558 18.08 19.5838C18.3087 17.1473 21.3856 13.9 21.3856 13.9C21.3856 13.9 22.1608 14.1557 23.1498 14.6091Z" fill="#515151"/>
<path d="M23.0961 20.9316C23.3538 21.9906 23.0311 23.0526 22.3395 23.739L25.0503 23.0464C24.1252 22.7731 23.3538 21.9906 23.0961 20.9316Z" fill="#393939"/>
<rect x="21.4561" y="0.652344" width="15.5671" height="25.1569" rx="2.1659" fill="#F3F8FF"/>
<path d="M27.1595 4.95039V5.84532H30.2411L28.0797 10.9785H29.1267L31.2373 5.74401V4.95039H27.1595Z" fill="#FF7171"/>
<path fill-rule="evenodd" clip-rule="evenodd" d="M24.0253 16.2667C24.0369 14.6656 25.3821 13.3711 27.0399 13.3711C28.0261 13.3711 28.9017 13.8292 29.4517 14.5376C30.0017 13.8292 30.8774 13.3711 31.8636 13.3711C33.5285 13.3711 34.8783 14.6769 34.8783 16.2877C34.8783 16.6283 34.8179 16.9552 34.707 17.2591C33.7854 19.9965 29.4516 22.8291 29.4516 22.8291C29.4516 22.8291 25.1083 19.9902 24.1931 17.25C24.0918 16.9693 24.0335 16.669 24.026 16.3565C24.0252 16.3265 24.025 16.2966 24.0253 16.2667Z" fill="#A82E26"/>
<g filter="url(#filter0_d_2072_98618)">
<path fill-rule="evenodd" clip-rule="evenodd" d="M29.3609 14.4263C28.8079 13.7816 27.9734 13.3711 27.0399 13.3711C25.3821 13.3711 24.0369 14.6656 24.0253 16.2667C24.025 16.2966 24.0252 16.3265 24.026 16.3565C24.0335 16.669 24.0918 16.9693 24.1931 17.25C25.0096 19.6947 28.5548 22.218 29.3098 22.7337C28.2722 21.6329 27.6428 20.1885 27.6428 18.6068C27.6428 16.9993 28.2928 15.5336 29.3609 14.4263Z" fill="#DF3737"/>
</g>
<rect width="15.5788" height="25.1388" rx="2.1659" transform="matrix(0.984063 0.17782 -0.169568 0.985519 32.7637 0)" fill="#F3F8FF"/>
<path d="M39.716 5.49492C38.8021 5.32977 38.0375 5.49188 37.4193 5.99787C36.8235 6.47359 36.4566 7.16225 36.3005 8.06919C36.1459 8.9678 36.2609 9.74354 36.662 10.3994C37.0769 11.0749 37.7399 11.5036 38.6538 11.6687C39.252 11.7768 39.7983 11.7383 40.2733 11.5667C40.4406 11.8886 40.6036 12.2355 40.7721 12.6006L41.498 12.1655C41.3364 11.8103 41.1637 11.4702 40.9963 11.1483C41.5561 10.6832 41.9215 10.0029 42.0747 9.11259C42.2322 8.19733 42.1104 7.41177 41.7078 6.76422C41.286 6.07889 40.6216 5.65856 39.716 5.49492ZM39.5686 6.35193C40.1834 6.46302 40.624 6.73997 40.8876 7.1994C41.1429 7.65734 41.2146 8.23651 41.0944 8.93543C40.9956 9.50955 40.7977 9.9628 40.5187 10.2899C40.2934 9.906 40.0585 9.52896 39.8207 9.16855L39.1612 9.61562C39.3853 9.95638 39.6119 10.3319 39.848 10.7521C39.5384 10.8591 39.1917 10.8823 38.8012 10.8117C38.1864 10.7006 37.7403 10.4055 37.4782 9.93777C37.2229 9.47983 37.1566 8.9188 37.2726 8.24484C37.39 7.56256 37.6395 7.05857 38.0322 6.71774C38.4444 6.36327 38.9538 6.24083 39.5686 6.35193Z" fill="#2E3D52"/>
<path d="M40.1941 17.0463C40.3015 16.8393 40.3789 16.6131 40.4205 16.3717C40.6473 15.0531 39.7154 13.7824 38.3388 13.5337C36.9623 13.285 35.6624 14.1523 35.4355 15.4709C35.394 15.7123 35.3913 15.952 35.4231 16.1842C34.1429 16.0764 32.984 16.9166 32.771 18.1547C32.5441 19.4733 33.4761 20.7439 34.8526 20.9927C35.7593 21.1565 36.6326 20.8362 37.1881 20.2216C37.5049 20.9938 38.2187 21.6009 39.1254 21.7648C40.5019 22.0135 41.8018 21.1462 42.0287 19.8275C42.2417 18.5895 41.4331 17.3937 40.1941 17.0463Z" fill="#393939"/>
<path d="M35.4957 21.0296C35.4606 20.5596 35.4735 20.0757 35.5392 19.5856C35.8932 16.9457 37.6742 14.9123 39.8469 14.3841C39.4735 13.956 38.95 13.6441 38.3388 13.5337C36.9623 13.285 35.6624 14.1523 35.4355 15.4709C35.394 15.7123 35.3913 15.952 35.4231 16.1842C34.1429 16.0764 32.984 16.9166 32.771 18.1547C32.5441 19.4733 33.4761 20.7439 34.8526 20.9927C35.0702 21.032 35.2859 21.0434 35.4957 21.0296Z" fill="#515151"/>
<path d="M37.1117 20.6655C36.9269 21.7396 36.2103 22.5746 35.3056 22.9129L38.0589 23.4105C37.3216 22.7754 36.9269 21.7396 37.1117 20.6655Z" fill="#393939"/>
<rect width="15.6266" height="25.0649" rx="2.1659" transform="matrix(0.916996 0.398896 -0.382674 0.923883 45.6709 1.95703)" fill="#F3F8FF"/>
<path d="M51.2485 8.892C50.3968 8.52155 49.618 8.50492 48.9053 8.85773C48.2211 9.18607 47.7123 9.77481 47.3601 10.625C47.0112 11.4674 46.9514 12.2515 47.1962 12.984C47.4501 13.7388 47.9996 14.3092 48.8512 14.6797C49.4086 14.9222 49.948 15.0095 50.4476 14.9507C50.539 15.3034 50.6207 15.6796 50.7038 16.0747L51.5054 15.8159C51.4269 15.4319 51.3342 15.0602 51.2427 14.7074C51.8895 14.3812 52.3951 13.8002 52.7408 12.9656C53.0962 12.1076 53.1515 11.3124 52.9034 10.5877C52.6451 9.82172 52.0923 9.25909 51.2485 8.892ZM50.9157 9.69542C51.4886 9.94463 51.8556 10.316 52.0102 10.8251C52.157 11.3309 52.0986 11.913 51.8272 12.5682C51.6043 13.1064 51.3118 13.5039 50.9683 13.7595C50.8343 13.333 50.6894 12.911 50.5379 12.5045L49.7982 12.7903C49.9407 13.1744 50.0779 13.5931 50.2144 14.0576C49.8898 14.0913 49.5478 14.0346 49.184 13.8763C48.6111 13.6271 48.2428 13.2367 48.0914 12.7198C47.9446 12.2141 48.0042 11.6509 48.2659 11.0191C48.5309 10.3794 48.8847 9.94423 49.3418 9.70117C49.8207 9.44924 50.3428 9.4462 50.9157 9.69542Z" fill="#FF7171"/>
<g filter="url(#filter1_d_2072_98618)">
<path d="M42.0444 20.3353C41.8269 19.6504 42.1319 18.9132 42.7635 18.5973L47.0323 16.4619C47.8206 16.0677 48.7788 16.484 49.0503 17.3388L50.5184 21.9604C50.736 22.6453 50.431 23.3825 49.7994 23.6985L45.5305 25.8338C44.7423 26.2281 43.784 25.8117 43.5125 24.9569L42.0444 20.3353Z" fill="#A82E26"/>
<path d="M42.7635 18.5973C42.1319 18.9132 41.8269 19.6504 42.0444 20.3353L43.1564 23.8358C43.2314 23.5759 43.3215 23.3177 43.4273 23.0624C44.4984 20.4766 46.8845 18.8674 49.4772 18.6827L49.0503 17.3388C48.7788 16.484 47.8206 16.0677 47.0323 16.4619L42.7635 18.5973Z" fill="#DF3737"/>
</g>
<defs>
<filter id="filter0_d_2072_98618" x="22.478" y="11.824" width="8.42991" height="12.4575" filterUnits="userSpaceOnUse" color-interpolation-filters="sRGB">
<feFlood flood-opacity="0" result="BackgroundImageFix"/>
<feColorMatrix in="SourceAlpha" type="matrix" values="0 0 0 0 0 0 0 0 0 0 0 0 0 0 0 0 0 0 127 0" result="hardAlpha"/>
<feOffset/>
<feGaussianBlur stdDeviation="0.773554"/>
<feComposite in2="hardAlpha" operator="out"/>
<feColorMatrix type="matrix" values="0 0 0 0 0 0 0 0 0 0 0 0 0 0 0 0 0 0 0.25 0"/>
<feBlend mode="normal" in2="BackgroundImageFix" result="effect1_dropShadow_2072_98618"/>
<feBlend mode="normal" in="SourceGraphic" in2="effect1_dropShadow_2072_98618" result="shape"/>
</filter>
<filter id="filter1_d_2072_98618" x="41.3082" y="15.6461" width="9.94639" height="11.0047" filterUnits="userSpaceOnUse" color-interpolation-filters="sRGB">
<feFlood flood-opacity="0" result="BackgroundImageFix"/>
<feColorMatrix in="SourceAlpha" type="matrix" values="0 0 0 0 0 0 0 0 0 0 0 0 0 0 0 0 0 0 127 0" result="hardAlpha"/>
<feOffset/>
<feGaussianBlur stdDeviation="0.333216"/>
<feComposite in2="hardAlpha" operator="out"/>
<feColorMatrix type="matrix" values="0 0 0 0 0 0 0 0 0 0 0 0 0 0 0 0 0 0 0.25 0"/>
<feBlend mode="normal" in2="BackgroundImageFix" result="effect1_dropShadow_2072_98618"/>
<feBlend mode="normal" in="SourceGraphic" in2="effect1_dropShadow_2072_98618" result="shape"/>
</filter>
</defs>
</svg>
