<svg width="80" height="80" viewBox="0 0 80 80" fill="none" xmlns="http://www.w3.org/2000/svg">
<path d="M40 69.543C40 70.5844 39.1549 71.4346 38.1153 71.3721C32.5618 71.0386 27.1838 69.2355 22.5392 66.132C17.3708 62.6786 13.3425 57.7701 10.9638 52.0273C8.58501 46.2845 7.96262 39.9652 9.1753 33.8687C10.388 27.7721 13.3813 22.1721 17.7766 17.7767C22.172 13.3814 27.772 10.3881 33.8686 9.17542C39.9651 7.96275 46.2844 8.58514 52.0272 10.9639C57.77 13.3426 62.6785 17.3709 66.1319 22.5393C69.2353 27.184 71.0384 32.5619 71.372 38.1154C71.4345 39.155 70.5843 40.0001 69.5428 40.0001C68.5014 40.0001 67.6638 39.1548 67.5929 38.1158C67.2646 33.3088 65.685 28.6589 62.9961 24.6346C59.9571 20.0864 55.6376 16.5415 50.5839 14.4482C45.5302 12.3549 39.9693 11.8072 34.6043 12.8744C29.2394 13.9415 24.3114 16.5756 20.4434 20.4436C16.5755 24.3115 13.9414 29.2395 12.8743 34.6045C11.8071 39.9694 12.3548 45.5303 14.4481 50.584C16.5414 55.6377 20.0863 59.9572 24.6345 62.9962C28.6588 65.6851 33.3086 67.2648 38.1156 67.593C39.1547 67.6639 40 68.5015 40 69.543Z" fill="currentColor"/>
</svg>
